<?xml version="1.0" encoding="UTF-8"?><svg id="Layer_2" xmlns="http://www.w3.org/2000/svg" viewBox="0 0 415.6 325"><defs><style>.cls-1{letter-spacing:-.02em;}.cls-2{fill:#29abe2;}.cls-3{fill:#fff;}.cls-4{letter-spacing:-.01em;}.cls-5{fill:#22b573;}.cls-6{font-family:CooperHewitt-Bold, 'Cooper Hewitt';font-size:26.49px;font-weight:700;}.cls-7{letter-spacing:0em;}</style></defs><g id="Layer_1-2"><rect class="cls-2" x=".5" y=".5" width="85" height="324"/><path d="M85,1v323H1V1h84M86,0H0v325h86V0h0Z"/><rect x="100.5" y="155.5" width="85" height="169"/><path class="cls-3" d="M185,156v168h-84v-168h84M186,155h-86v170h86v-170h0Z"/><rect class="cls-5" x="200.5" y="225.5" width="85" height="99" rx="14.47" ry="14.47"/><path d="M271.03,226c7.7,0,13.97,6.27,13.97,13.97v70.06c0,7.7-6.27,13.97-13.97,13.97h-56.06c-7.7,0-13.97-6.27-13.97-13.97v-70.06c0-7.7,6.27-13.97,13.97-13.97h56.06M271.03,225h-56.06c-8.27,0-14.97,6.7-14.97,14.97v70.06c0,8.27,6.7,14.97,14.97,14.97h56.06c8.27,0,14.97-6.7,14.97-14.97v-70.06c0-8.27-6.7-14.97-14.97-14.97h0Z"/><rect x="300.5" y="275.5" width="85" height="49"/><path class="cls-3" d="M385,276v48h-84v-48h84M386,275h-86v50h86v-50h0Z"/><text class="cls-6" transform="translate(136.93 60.62)"><tspan x="0" y="0">G</tspan><tspan class="cls-1" x="17.83" y="0">r</tspan><tspan class="cls-7" x="27.39" y="0">een is the be</tspan><tspan class="cls-4" x="180.6" y="0">s</tspan><tspan x="194.27" y="0">t color!</tspan></text><path d="M298.22,77.43c15.33,12.36,32.22,26.82,35.04,47.55s-12.53,37.18-25.64,50.71c-8.21,8.48-17.05,16.35-26.43,23.5-1.52,1.16-.02,3.76,1.51,2.59,8.63-6.58,16.83-13.71,24.5-21.39,7.35-7.36,14.59-15.15,20.36-23.84s9.41-17.86,9.01-27.98-4.65-20.12-10.63-28.35c-7.06-9.71-16.31-17.44-25.6-24.92-1.49-1.2-3.63.91-2.12,2.12h0Z"/><path d="M284.44,174.23c-1.65,4.96-2.92,10.04-3.79,15.2-.42,2.47-.74,4.97-.98,7.46-.21,2.19-.79,4.92-.12,7.07.7,2.26,2.84,2.71,4.93,2.4,2.56-.39,5.12-.91,7.67-1.36,5.36-.95,10.71-1.91,16.07-2.86,6.01-1.07,12.01-2.14,18.02-3.21,1.9-.34,1.09-3.23-.8-2.89-9.58,1.7-19.15,3.41-28.73,5.11-2.43.43-4.87.87-7.3,1.3-1.14.2-2.27.4-3.41.61-.76.13-2.64.83-3.35.37-.57-.36-.32-1.73-.29-2.27.06-1.19.15-2.37.25-3.56.21-2.39.51-4.77.9-7.14.87-5.24,2.16-10.4,3.83-15.44.61-1.84-2.29-2.62-2.89-.8h0Z"/></g></svg>
